# Blender 4.0.2
# www.blender.org
mtllib Mountain.mtl
o Landscape.001
v -0.933823 0.013986 0.075273
v -0.905490 0.004706 -0.289360
v -1.000028 0.000637 0.185773
v -0.789156 0.027925 0.420032
v -0.798132 0.001742 -0.525664
v -0.615053 0.000412 0.783607
v -0.627302 0.028862 0.622926
v -0.694786 0.162313 0.149747
v -0.662228 0.150118 -0.151049
v -0.596835 0.187238 -0.320633
v -0.419702 0.000663 -0.906313
v -0.063243 0.001125 1.000065
v -0.616724 0.099770 0.478631
v -0.541915 0.013644 -0.763156
v -0.517398 0.249017 0.363391
v -0.584176 0.243889 0.028688
v -0.466635 0.200006 -0.402560
v -0.405885 0.013732 0.819537
v -0.419931 0.094788 0.652171
v -0.478460 0.338455 0.098474
v -0.471501 0.421943 -0.050584
v -0.435262 0.420455 -0.168929
v -0.420504 0.289233 0.291729
v -0.385798 0.489797 0.042048
v -0.446919 0.095363 -0.647686
v -0.359955 0.408134 0.212069
v -0.320891 0.202178 -0.563000
v -0.284906 0.027247 -0.839643
v 0.205466 0.000210 -1.000007
v -0.239719 0.207353 0.620122
v -0.301806 0.341393 0.339220
v -0.218068 0.723995 0.155099
v -0.240061 0.715058 0.100283
v -0.286775 0.609339 -0.207020
v -0.285388 0.299566 -0.492539
v -0.186363 0.144061 -0.654221
v -0.053459 0.012679 0.931931
v -0.196122 0.093292 0.755933
v -0.132004 0.446937 0.455078
v -0.159133 0.570929 0.273666
v -0.236868 0.539055 -0.370831
v -0.146272 0.323257 0.567368
v -0.103485 0.952978 -0.078995
v -0.178211 0.795568 -0.280132
v 0.030524 0.051469 0.850474
v -0.000170 0.243492 0.629525
v -0.035685 0.578098 0.305135
v -0.101230 0.864510 0.093591
v -0.111305 0.887512 -0.263146
v 0.001953 0.598625 -0.398162
v 0.079161 0.032478 -0.870506
v 0.181100 0.012490 -0.918955
v -0.036861 0.506568 0.459200
v 0.050399 0.774836 0.112550
v -0.026054 0.869590 -0.006716
v -0.024692 0.907423 -0.120850
v 0.061286 0.508830 -0.439825
v 0.100271 0.338328 -0.549593
v -0.008854 0.265356 -0.595847
v 0.031120 0.507824 0.404612
v 0.055742 0.616026 0.258420
v 0.088042 0.745379 -0.098985
v 0.198160 0.140246 0.698933
v 0.115796 0.262308 0.592500
v 0.099447 0.696468 0.134261
v 0.102977 0.708263 -0.162941
v 0.164323 0.111545 -0.775677
v 0.295948 0.012371 0.879763
v 0.175717 0.255313 0.519241
v 0.179749 0.378112 0.312324
v 0.177989 0.653616 0.103701
v 0.156028 0.708163 -0.165934
v 0.218703 0.643843 -0.310384
v 0.345841 0.325493 0.327611
v 0.261240 0.437462 0.229917
v 0.228519 0.693207 0.078374
v 0.244427 0.782728 -0.094327
v 0.250819 0.789250 -0.174677
v 0.321649 0.393977 -0.471767
v 0.318683 0.177033 -0.652055
v 0.317171 0.117158 0.600024
v 0.380789 0.646542 0.106539
v 0.316084 0.746669 -0.009966
v 0.328534 0.734025 -0.062442
v 0.445209 0.009333 -0.829298
v 0.745891 0.002116 0.603324
v 0.405804 0.521489 0.203116
v 0.400537 0.644424 0.066823
v 0.374975 0.450767 -0.351686
v 0.563160 0.071594 0.500722
v 0.501721 0.180011 0.371154
v 0.493603 0.528170 0.004347
v 0.500618 0.402071 -0.194829
v 0.447212 0.307040 -0.487526
v 0.498311 0.054649 -0.691644
v 0.510004 0.483586 0.121674
v 0.622690 0.114852 -0.495282
v 0.679630 0.149008 0.287591
v 0.617116 0.244632 0.209447
v 0.656197 0.225992 -0.118996
v 0.710594 0.149050 -0.146265
v 0.751039 0.049199 0.430198
v 0.757277 0.047798 -0.417626
v 0.792686 0.014342 -0.503261
v 0.910795 0.000427 -0.462833
v 0.833774 0.044686 0.197502
v 0.838017 0.040970 -0.172537
v 0.936385 0.004284 0.270186
vn -0.4972 0.8584 -0.1259
vn -0.1880 0.9817 0.0310
vn -0.3715 0.9284 -0.0018
vn -0.5598 0.8233 0.0937
vn -0.5255 0.7897 -0.3166
vn -0.6182 0.7818 -0.0813
vn -0.4761 0.7893 0.3877
vn -0.4008 0.8838 0.2413
vn -0.4286 0.8437 -0.3232
vn -0.1024 0.9701 -0.2198
vn -0.3573 0.8374 -0.4137
vn -0.3795 0.8455 0.3758
vn -0.2935 0.8409 -0.4547
vn -0.4826 0.7430 -0.4637
vn -0.1675 0.8931 0.4176
vn -0.3261 0.8939 0.3075
vn -0.1454 0.9689 0.2003
vn -0.3247 0.8101 0.4882
vn -0.7007 0.6553 0.2820
vn -0.7099 0.7038 0.0269
vn -0.7338 0.6215 -0.2741
vn -0.3709 0.8243 0.4277
vn -0.6784 0.5551 0.4812
vn -0.7121 0.7018 0.0179
vn -0.7948 0.5832 0.1681
vn -0.0703 0.6293 -0.7740
vn -0.4035 0.5945 -0.6956
vn -0.0899 0.9230 -0.3742
vn -0.5719 0.6513 0.4987
vn -0.8448 0.4774 -0.2415
vn -0.1607 0.7673 -0.6208
vn -0.0230 0.9548 0.2964
vn -0.5256 0.6607 0.5360
vn -0.4362 0.6868 0.5813
vn -0.3694 0.6164 0.6954
vn -0.5918 0.5587 0.5811
vn -0.2535 0.6224 0.7405
vn -0.0721 0.8620 -0.5018
vn 0.0315 0.8387 0.5437
vn -0.1779 0.7858 0.5923
vn -0.1243 0.8582 0.4980
vn -0.0875 0.7942 0.6013
vn -0.1917 0.9785 0.0758
vn -0.5790 0.4323 -0.6913
vn 0.2252 0.5444 -0.8080
vn 0.0271 0.9873 -0.1563
vn 0.0375 0.9488 -0.3136
vn -0.0312 0.7904 0.6118
vn 0.6628 0.7337 -0.1494
vn 0.6261 0.7310 0.2714
vn -0.0794 0.7806 -0.6199
vn 0.5047 0.6976 0.5086
vn 0.4038 0.6967 0.5929
vn 0.3321 0.6697 0.6643
vn 0.5519 0.6912 0.4666
vn 0.0558 0.7852 -0.6168
vn 0.0486 0.8686 -0.4932
vn 0.6571 0.7430 -0.1273
vn -0.1919 0.6741 -0.7133
vn -0.0111 0.6261 -0.7797
vn 0.3141 0.7981 0.5141
vn 0.2005 0.8858 0.4186
vn -0.2478 0.9296 -0.2729
vn 0.2356 0.7530 0.6144
vn 0.0347 0.7152 -0.6981
vn 0.0509 0.5741 -0.8172
vn 0.4034 0.8020 0.4406
vn 0.5298 0.7121 0.4606
vn 0.4648 0.6735 0.5747
vn 0.0863 0.6070 0.7900
vn 0.3112 0.6414 -0.7012
vn 0.2383 0.6536 -0.7184
vn 0.2247 0.6590 0.7178
vn 0.3868 0.8783 0.2810
vn -0.2539 0.7619 0.5959
vn 0.4064 0.6969 0.5909
vn -0.1652 0.9684 0.1869
vn 0.7190 0.6784 -0.1510
vn 0.0800 0.9308 -0.3567
vn 0.2619 0.5903 0.7636
vn 0.7462 0.6501 0.1437
vn 0.6684 0.5963 -0.4446
vn 0.2810 0.8759 0.3923
vn 0.4265 0.6918 0.5827
vn 0.8249 0.5581 -0.0901
vn 0.5364 0.6569 -0.5298
vn 0.3489 0.7895 -0.5049
vn 0.2503 0.9297 0.2701
vn 0.7859 0.5199 0.3348
vn 0.5426 0.7798 0.3122
vn 0.7365 0.5842 0.3409
vn 0.8223 0.5644 -0.0724
vn 0.7291 0.6024 -0.3250
vn 0.7089 0.6986 -0.0975
vn 0.5782 0.7130 -0.3966
vn 0.3768 0.8818 0.2835
vn 0.3453 0.8998 -0.2667
vn 0.2180 0.9669 -0.1327
vn 0.5488 0.1439 -0.8234
vn 0.4694 0.8812 0.0560
vn 0.5087 0.8587 -0.0617
vn 0.5157 0.8416 -0.1602
vn 0.3539 0.9320 0.0786
vn -0.8351 0.5276 0.1556
vn -0.0228 0.9862 0.1640
vn -0.6593 0.4938 -0.5669
vn 0.0572 0.6558 0.7528
vn 0.6528 0.6332 0.4159
vt 0.971924 0.177659
vt 0.921710 0.343266
vt 0.920334 0.298885
vt 0.819329 0.282087
vt 0.863151 0.115262
vt 0.860841 0.181697
vt 0.765603 0.389351
vt 0.830987 0.395767
vt 0.984212 0.089848
vt 0.214281 0.527105
vt 0.214281 0.691958
vt 0.207430 0.584383
vt 0.725553 0.324245
vt 0.138753 0.733504
vt 0.016298 0.733504
vt 0.128373 0.643855
vt 0.146436 0.592862
vt 0.685050 0.490029
vt 0.762494 0.445966
vt 0.741696 0.500713
vt 0.694976 0.427131
vt 0.736315 0.223110
vt 0.793415 0.221845
vt 0.748222 0.121603
vt 0.704889 0.286387
vt 0.082245 0.628800
vt 0.131918 0.527105
vt 0.675384 0.240356
vt 0.738043 0.163828
vt 0.688284 0.177696
vt 0.668910 0.564703
vt 0.607523 0.539400
vt 0.713305 0.561367
vt 0.524199 0.576958
vt 0.547983 0.524098
vt 0.563815 0.615057
vt 0.658151 0.283999
vt 0.791733 0.014701
vt 0.675778 0.072236
vt 0.649414 0.622882
vt 0.587152 0.491763
vt 0.576705 0.292674
vt 0.632181 0.385483
vt 0.581742 0.221469
vt 0.577640 0.170642
vt 0.591698 0.345330
vt 0.602529 0.739936
vt 0.466387 0.059361
vt 0.418660 0.003842
vt 0.494300 0.029708
vt 0.546898 0.218608
vt 0.527371 0.122411
vt 0.533657 0.055759
vt 0.804677 0.543668
vt 0.841115 0.620100
vt 0.578284 0.795275
vt 0.598452 0.779998
vt 0.540277 0.277557
vt 0.004134 0.051551
vt 0.003842 0.015307
vt 0.045723 0.039681
vt 0.978124 0.558585
vt 0.926998 0.541422
vt 0.989262 0.524098
vt 0.242998 0.052301
vt 0.256262 0.024986
vt 0.351781 0.087968
vt 0.179104 0.063802
vt 0.196066 0.037369
vt 0.524199 0.189738
vt 0.103877 0.058341
vt 0.181965 0.009050
vt 0.073090 0.003842
vt 0.655046 0.753648
vt 0.937914 0.626018
vt 0.960628 0.612491
vt 0.713892 0.665927
vt 0.755775 0.691828
vt 0.411751 0.114900
vt 0.495925 0.135465
vt 0.038708 0.142709
vt 0.048110 0.106959
vt 0.131348 0.115814
vt 0.900493 0.682469
vt 0.943737 0.644201
vt 0.817498 0.652703
vt 0.392500 0.167513
vt 0.334146 0.117351
vt 0.248163 0.130151
vt 0.215798 0.155784
vt 0.815608 0.755355
vt 0.720313 0.790204
vt 0.271272 0.183005
vt 0.085770 0.156452
vt 0.118457 0.127200
vt 0.143575 0.173173
vt 0.049860 0.143575
vt 0.073139 0.170283
vt 0.024805 0.156845
vt 0.971853 0.668263
vt 0.198354 0.186146
vt 0.133058 0.185264
vt 0.865429 0.758882
vt 0.383805 0.259428
vt 0.320615 0.244265
vt 0.141777 0.240662
vt 0.044430 0.276392
vt 0.807400 0.808249
vt 0.704736 0.866864
vt 0.437225 0.306096
vt 0.186525 0.234390
vt 0.310421 0.312252
vt 0.265110 0.290894
vt 0.172241 0.356400
vt 0.107216 0.295116
vt 0.181878 0.388850
vt 0.079649 0.424760
vt 0.783369 0.888703
vt 0.376319 0.326701
vt 0.779544 0.957539
vt 0.008501 0.527105
vt 0.008615 0.847967
vt 0.003842 0.741511
vt 0.311523 0.387009
vt 0.201533 0.446786
vt 0.122743 0.461488
vt 0.346310 0.411089
vt 0.105395 0.490436
vt 0.801228 0.996158
vt 0.874481 0.946717
vt 0.278103 0.675299
vt 0.278103 0.527105
vt 0.305288 0.556401
vt 0.900392 0.003841
vt 0.842838 0.073917
vt 0.593187 0.155921
vt 0.628033 0.438941
vt 0.581652 0.516414
vt 0.618492 0.015694
vt 0.705890 0.021778
vt 0.893397 0.529774
vt 0.360872 0.052975
vt 0.319357 0.008459
vt 0.579013 0.003841
vt 0.128214 0.081866
vt 0.516516 0.018255
vt 0.266671 0.578393
vt 0.270420 0.676767
vt 0.247917 0.666529
vt 0.223781 0.602258
vt 0.653142 0.863429
vt 0.221964 0.573059
vt 0.270420 0.527105
vt 0.987452 0.765675
vt 0.909400 0.795548
vt 0.035533 0.342107
vt 0.126067 0.519422
s 1
f 2/1/1 3/2/2 1/3/3
f 2/1/1 1/3/3 8/4/4
f 10/5/5 2/1/1 9/6/6
f 13/7/7 8/4/4 4/8/8
f 5/9/9 2/1/1 10/5/5
f 11/10/10 5/11/9 14/12/11
f 15/13/12 8/4/4 13/7/7
f 25/14/13 5/15/9 17/16/14
f 14/12/11 5/11/9 25/17/13
f 18/18/15 7/19/16 6/20/17
f 19/21/18 13/7/7 7/19/16
f 20/22/19 16/23/20 15/13/12
f 10/5/5 9/6/6 22/24/21
f 23/25/22 20/22/19 15/13/12
f 17/16/14 10/26/5 22/27/21
f 26/28/23 20/22/19 23/25/22
f 22/24/21 21/29/24 24/30/25
f 27/31/26 25/32/13 35/33/27
f 11/34/10 14/35/11 28/36/28
f 31/37/29 26/28/23 23/25/22
f 35/38/27 22/24/21 34/39/30
f 28/36/28 25/32/13 36/40/31
f 37/41/32 18/18/15 6/20/17
f 39/42/33 31/37/29 30/43/34
f 40/44/35 32/45/36 26/28/23
f 42/46/37 39/42/33 30/43/34
f 11/34/10 28/36/28 51/47/38
f 45/48/39 38/49/40 37/50/32
f 47/51/41 40/44/35 39/42/33
f 48/52/42 43/53/43 32/45/36
f 35/33/27 41/54/44 50/55/45
f 29/56/46 11/34/10 52/57/47
f 53/58/48 39/42/33 42/46/37
f 53/58/48 47/51/41 39/42/33
f 56/59/49 43/60/43 55/61/50
f 56/62/49 49/63/51 43/64/43
f 60/65/52 53/66/48 64/67/53
f 61/68/54 47/69/41 60/65/52
f 61/70/54 40/44/35 47/51/41
f 61/68/54 54/71/55 40/72/35
f 55/61/50 48/73/42 54/71/55
f 51/47/38 36/40/31 67/74/56
f 66/75/57 50/55/45 62/76/58
f 67/74/56 59/77/59 58/78/60
f 63/79/61 45/48/39 68/80/62
f 72/81/63 62/82/58 71/83/64
f 73/84/65 66/75/57 72/85/63
f 57/86/66 66/75/57 73/84/65
f 81/87/67 64/67/53 63/79/61
f 69/88/68 64/67/53 81/87/67
f 71/83/64 70/89/69 75/90/70
f 79/91/71 58/78/60 57/86/66
f 80/92/72 67/74/56 58/78/60
f 81/87/67 63/79/61 68/80/62
f 74/93/73 69/88/68 81/87/67
f 75/90/70 70/89/69 74/93/73
f 83/94/74 76/95/75 82/96/76
f 83/94/74 77/97/77 76/95/75
f 84/98/78 77/97/77 83/94/74
f 84/98/78 78/99/79 77/97/77
f 78/100/79 79/91/71 73/84/65
f 87/101/80 82/96/76 75/90/70
f 84/98/78 83/94/74 88/102/81
f 89/103/82 79/91/71 78/100/79
f 90/104/83 81/87/67 68/80/62
f 91/105/84 81/87/67 90/104/83
f 87/101/80 74/93/73 91/105/84
f 92/106/85 89/107/82 84/98/78
f 94/108/86 79/91/71 89/103/82
f 95/109/87 80/92/72 79/91/71
f 95/109/87 67/74/56 80/92/72
f 90/104/83 68/80/62 86/110/88
f 96/111/89 87/101/80 91/105/84
f 3/2/2 6/20/17 7/19/16 4/8/8
f 98/112/90 91/105/84 90/104/83
f 96/111/89 91/105/84 99/113/91
f 100/114/92 93/115/93 92/106/85
f 101/116/94 97/117/95 93/115/93
f 97/118/95 95/109/87 94/108/86
f 102/119/96 90/104/83 86/110/88
f 98/112/90 90/104/83 102/119/96
f 99/113/91 91/105/84 98/112/90
f 100/114/92 96/111/89 99/113/91
f 104/120/97 95/109/87 97/118/95
f 105/121/98 29/122/46 85/123/99
f 101/116/94 99/113/91 98/112/90
f 106/124/100 98/112/90 102/119/96
f 107/125/101 103/126/102 101/116/94
f 106/124/100 102/119/96 108/127/103
f 104/128/97 103/126/102 107/125/101
f 105/129/98 104/120/97 107/130/101
f 4/8/8 1/3/3 3/2/2
f 16/23/20 21/29/24 22/24/21 9/6/6
f 4/8/8 8/4/4 1/3/3
f 9/6/6 2/1/1 8/4/4
f 7/19/16 13/7/7 4/8/8
f 15/13/12 16/23/20 8/4/4
f 16/23/20 9/6/6 8/4/4
f 17/16/14 5/15/9 10/26/5
f 18/18/15 19/21/18 7/19/16
f 19/21/18 15/13/12 13/7/7
f 20/22/19 21/29/24 16/23/20
f 23/25/22 19/21/18 30/43/34 31/37/29
f 19/131/18 23/132/22 15/133/12
f 20/22/19 24/30/25 21/29/24
f 26/28/23 24/30/25 20/22/19
f 35/38/27 25/134/13 17/135/14
f 28/36/28 14/35/11 25/32/13
f 24/30/25 26/28/23 32/45/36 33/136/104
f 24/30/25 33/136/104 34/39/30 22/24/21
f 19/21/18 18/18/15 37/41/32 38/137/40
f 35/38/27 17/135/14 22/24/21
f 36/40/31 25/32/13 27/31/26
f 12/138/105 37/41/32 6/20/17
f 33/136/104 43/53/43 44/139/106 34/39/30
f 38/137/40 30/43/34 19/21/18
f 31/37/29 40/44/35 26/28/23
f 41/140/44 35/38/27 34/39/30
f 38/137/40 42/46/37 30/43/34
f 39/42/33 40/44/35 31/37/29
f 32/45/36 43/53/43 33/136/104
f 44/141/106 49/63/51 50/55/45 41/54/44
f 44/139/106 41/140/44 34/39/30
f 46/142/107 42/143/37 38/49/40
f 40/44/35 48/52/42 32/45/36
f 49/144/51 44/139/106 43/53/43
f 35/33/27 57/86/66 58/78/60 27/31/26
f 51/47/38 28/36/28 36/40/31
f 52/57/47 11/34/10 51/47/38
f 46/142/107 53/66/48 42/143/37
f 54/71/55 48/73/42 40/72/35
f 55/61/50 43/60/43 48/73/42
f 56/62/49 50/55/45 49/63/51
f 57/86/66 35/33/27 50/55/45
f 27/31/26 58/78/60 59/77/59 36/40/31
f 45/48/39 63/79/61 64/67/53 46/142/107
f 45/48/39 46/142/107 38/49/40
f 64/67/53 53/66/48 46/142/107
f 60/65/52 47/69/41 53/66/48
f 62/82/58 56/59/49 55/61/50
f 62/76/58 50/55/45 56/62/49
f 67/74/56 36/40/31 59/77/59
f 54/71/55 65/145/108 62/82/58 55/61/50
f 65/145/108 54/71/55 61/68/54
f 64/67/53 69/88/68 70/89/69 60/65/52
f 66/75/57 57/86/66 50/55/45
f 68/80/62 37/50/32 12/146/105
f 68/80/62 45/48/39 37/50/32
f 61/68/54 70/89/69 71/83/64 65/145/108
f 70/89/69 61/68/54 60/65/52
f 72/147/63 71/148/64 76/149/75 77/150/77
f 71/83/64 62/82/58 65/145/108
f 72/85/63 66/75/57 62/76/58
f 67/74/56 52/57/47 51/47/38
f 74/93/73 70/89/69 69/88/68
f 52/57/47 67/74/56 95/109/87 85/151/99
f 77/150/77 78/152/79 72/147/63
f 78/152/79 73/153/65 72/147/63
f 73/84/65 79/91/71 57/86/66
f 75/90/70 82/96/76 71/83/64
f 82/96/76 76/95/75 71/83/64
f 79/91/71 80/92/72 58/78/60
f 85/151/99 29/56/46 52/57/47
f 74/93/73 87/101/80 75/90/70
f 88/102/81 83/94/74 82/96/76
f 84/98/78 89/107/82 78/99/79
f 91/105/84 74/93/73 81/87/67
f 88/102/81 92/106/85 84/98/78
f 92/154/85 93/155/93 89/103/82
f 93/155/93 94/108/86 89/103/82
f 94/108/86 95/109/87 79/91/71
f 82/96/76 96/111/89 92/106/85 88/102/81
f 96/111/89 82/96/76 87/101/80
f 85/151/99 95/109/87 104/120/97 105/129/98
f 93/115/93 97/117/95 94/156/86
f 100/114/92 92/106/85 96/111/89
f 100/114/92 101/116/94 93/115/93
f 101/116/94 103/126/102 97/117/95
f 101/116/94 100/114/92 99/113/91
f 103/126/102 104/128/97 97/117/95
f 106/124/100 101/116/94 98/112/90
f 106/124/100 107/125/101 101/116/94
f 108/127/103 102/119/96 86/110/88
f 108/127/103 107/125/101 106/124/100
f 108/127/103 105/157/98 107/125/101
